<?xml version="1.0" encoding="UTF-8" standalone="no"?>
<svg
   xmlns="http://www.w3.org/2000/svg"
   id="Layer_1"
   style="enable-background:new 0 0 595.28 841.89;"
   xml:space="preserve">
<style
   type="text/css"
   id="style10">
	.st0{fill:none;stroke:#707579;stroke-width:2;stroke-miterlimit:10;}
</style>
<g
   id="g16"
   transform="translate(-5.8182756,-3.2885905)">
	<g
   id="g14">
		<path
   class="st0"
   d="m 18.39,25.69 c 0,-0.5 0,-0.97 0,-1.44 -0.02,-1.59 -1.21,-2.8 -2.76,-2.8 -1.54,0 -2.74,1.22 -2.75,2.81 0,0.47 0,0.94 0,1.44 -1.41,0 -2.78,0.06 -4.14,-0.02 C 7.79,25.62 7.09,24.91 7.03,23.97 6.95,22.61 7.01,21.25 7.01,19.83 c 0.47,0 0.93,0 1.38,0 1.63,-0.01 2.85,-1.19 2.86,-2.75 0,-1.57 -1.22,-2.75 -2.84,-2.76 -0.44,0 -0.89,0 -1.38,0 C 7.02,14.16 7,14.02 7,13.89 7,12.83 6.99,11.76 7,10.7 7,9.24 7.82,8.42 9.27,8.41 c 1.22,0 2.45,-0.01 3.67,-0.01 0.03,0 0.06,-0.02 0.14,-0.06 0,-0.46 -0.01,-0.95 0,-1.44 0.04,-1.31 0.96,-2.37 2.17,-2.52 1.3,-0.16 2.45,0.55 2.8,1.77 0.09,0.33 0.11,0.69 0.13,1.03 0.02,0.39 0,0.78 0,1.22 1.25,0 2.43,0 3.62,0 1.71,0 2.48,0.76 2.48,2.46 0,1.19 0,2.38 0,3.65 0.51,0 1,-0.01 1.49,0 1.32,0.04 2.38,0.94 2.54,2.14 0.18,1.3 -0.56,2.49 -1.79,2.83 -0.33,0.09 -0.69,0.1 -1.03,0.12 -0.38,0.02 -0.76,0 -1.2,0 0,0.22 0,0.41 0,0.59 0,1.13 0.01,2.26 0,3.38 -0.02,1.26 -0.88,2.11 -2.14,2.13 -1.11,0.01 -2.22,0 -3.34,0 -0.13,0.03 -0.25,0.01 -0.42,-0.01 z"
   id="path12" />
	</g>
</g>
</svg>
